M48
; DRILL file {KiCad 9.0.7} date 2026-03-30T18:14:09+0200
; FORMAT={-:-/ absolute / metric / decimal}
; #@! TF.CreationDate,2026-03-30T18:14:09+02:00
; #@! TF.GenerationSoftware,Kicad,Pcbnew,9.0.7
; #@! TF.FileFunction,NonPlated,1,2,NPTH
FMAT,2
METRIC
; #@! TA.AperFunction,NonPlated,NPTH,ComponentDrill
T1C1.750
; #@! TA.AperFunction,NonPlated,NPTH,ComponentDrill
T2C3.048
; #@! TA.AperFunction,NonPlated,NPTH,ComponentDrill
T3C3.988
%
G90
G05
T1
X33.02Y-57.15
X33.02Y-76.2
X33.02Y-95.25
X33.02Y-114.3
X33.02Y-133.35
X43.18Y-57.15
X43.18Y-76.2
X43.18Y-95.25
X43.18Y-114.3
X43.18Y-133.35
X52.07Y-38.1
X52.07Y-57.15
X54.451Y-114.3
X54.451Y-133.35
X56.832Y-76.2
X59.214Y-95.25
X62.23Y-38.1
X62.23Y-57.15
X64.611Y-114.3
X64.611Y-133.35
X66.992Y-76.2
X69.374Y-95.25
X71.12Y-57.15
X75.882Y-114.3
X78.264Y-133.35
X80.645Y-76.2
X81.28Y-57.15
X85.407Y-95.25
X86.042Y-114.3
X88.424Y-133.35
X90.17Y-38.1
X90.17Y-57.15
X90.805Y-76.2
X94.932Y-114.3
X95.567Y-95.25
X99.695Y-76.2
X100.33Y-38.1
X100.33Y-57.15
X102.076Y-133.35
X104.457Y-95.25
X105.093Y-114.3
X109.22Y-38.1
X109.22Y-57.15
X109.855Y-76.2
X112.236Y-133.35
X113.983Y-114.3
X114.617Y-95.25
X118.745Y-76.2
X119.38Y-38.1
X119.38Y-57.15
X123.507Y-95.25
X124.142Y-114.3
X128.27Y-38.1
X128.27Y-57.15
X128.905Y-76.2
X133.032Y-114.3
X133.667Y-95.25
X137.795Y-76.2
X138.43Y-38.1
X138.43Y-57.15
X142.558Y-95.25
X143.192Y-114.3
X147.32Y-38.1
X147.32Y-57.15
X147.955Y-76.2
X152.082Y-114.3
X152.718Y-95.25
X156.845Y-76.2
X157.48Y-38.1
X157.48Y-57.15
X161.607Y-95.25
X162.243Y-114.3
X166.37Y-57.15
X167.005Y-76.2
X171.132Y-114.3
X171.767Y-95.25
X173.514Y-133.35
X175.895Y-38.1
X175.895Y-76.2
X176.53Y-57.15
X180.657Y-95.25
X181.292Y-114.3
X183.674Y-133.35
X185.42Y-57.15
X186.055Y-38.1
X186.055Y-76.2
X190.183Y-114.3
X190.817Y-95.25
X194.945Y-38.1
X194.945Y-76.2
X195.58Y-57.15
X199.707Y-95.25
X200.343Y-114.3
X204.47Y-57.15
X205.105Y-38.1
X205.105Y-76.2
X209.232Y-114.3
X209.867Y-95.25
X213.995Y-38.1
X213.995Y-76.2
X214.63Y-57.15
X218.757Y-95.25
X219.392Y-114.3
X223.52Y-57.15
X224.155Y-38.1
X224.155Y-76.2
X228.282Y-114.3
X228.917Y-95.25
X233.045Y-38.1
X233.045Y-76.2
X233.68Y-57.15
X237.807Y-95.25
X238.442Y-114.3
X242.57Y-57.15
X243.205Y-38.1
X243.205Y-76.2
X244.951Y-133.35
X247.332Y-114.3
X247.968Y-95.25
X252.095Y-76.2
X252.73Y-57.15
X255.111Y-133.35
X256.858Y-95.25
X257.493Y-114.3
X261.62Y-38.1
X261.62Y-57.15
X262.255Y-76.2
X266.382Y-114.3
X267.017Y-95.25
X268.764Y-133.35
X271.145Y-76.2
X271.78Y-38.1
X271.78Y-57.15
X275.907Y-95.25
X276.542Y-114.3
X278.924Y-133.35
X280.67Y-38.1
X280.67Y-57.15
X281.305Y-76.2
X286.067Y-95.25
X290.195Y-76.2
X290.83Y-38.1
X290.83Y-57.15
X292.576Y-133.35
X294.957Y-95.25
X299.72Y-38.1
X300.355Y-76.2
X302.101Y-114.3
X302.736Y-133.35
X305.118Y-95.25
X309.245Y-57.15
X309.88Y-38.1
X312.261Y-114.3
X316.389Y-85.725
X316.389Y-133.35
X318.77Y-38.1
X319.405Y-57.15
X326.549Y-85.725
X326.549Y-133.35
X328.93Y-38.1
X342.582Y-38.1
X342.582Y-57.15
X342.582Y-76.2
X342.582Y-133.35
X352.743Y-38.1
X352.743Y-57.15
X352.743Y-76.2
X352.743Y-133.35
X361.632Y-38.1
X361.632Y-57.15
X361.632Y-76.2
X361.632Y-114.3
X361.632Y-133.35
X371.792Y-38.1
X371.792Y-57.15
X371.792Y-76.2
X371.792Y-114.3
X371.792Y-133.35
X380.683Y-38.1
X380.683Y-57.15
X380.683Y-76.2
X380.683Y-133.35
X390.842Y-38.1
X390.842Y-57.15
X390.842Y-76.2
X390.842Y-133.35
X404.495Y-57.15
X404.495Y-76.2
X404.495Y-95.25
X404.495Y-114.3
X414.02Y-133.35
X414.655Y-57.15
X414.655Y-76.2
X414.655Y-95.25
X414.655Y-114.3
X423.545Y-57.15
X423.545Y-76.2
X423.545Y-95.25
X423.545Y-114.3
X424.18Y-133.35
X433.705Y-57.15
X433.705Y-76.2
X433.705Y-95.25
X433.705Y-114.3
X442.595Y-57.15
X442.595Y-76.2
X442.595Y-95.25
X442.595Y-114.3
X442.595Y-133.35
X452.755Y-57.15
X452.755Y-76.2
X452.755Y-95.25
X452.755Y-114.3
X452.755Y-133.35
X461.645Y-57.15
X461.645Y-85.725
X461.645Y-123.825
X471.805Y-57.15
X471.805Y-85.725
X471.805Y-123.825
T2
X128.588Y-126.365
X228.6Y-126.365
X295.274Y-107.306
X302.419Y-50.165
X314.484Y-73.819
X314.484Y-97.631
X319.086Y-107.306
X326.231Y-50.165
X407.194Y-126.365
X431.006Y-126.365
X459.74Y-73.819
X459.74Y-97.631
X459.74Y-111.919
X459.74Y-135.731
T3
X38.1Y-57.15
X38.1Y-76.2
X38.1Y-95.25
X38.1Y-114.3
X38.1Y-133.35
X57.15Y-38.1
X57.15Y-57.15
X59.531Y-114.3
X59.531Y-133.35
X61.912Y-76.2
X64.294Y-95.25
X76.2Y-57.15
X80.962Y-114.3
X83.344Y-133.35
X85.725Y-76.2
X90.487Y-95.25
X95.25Y-38.1
X95.25Y-57.15
X100.012Y-114.3
X104.775Y-76.2
X107.156Y-133.35
X109.537Y-95.25
X114.3Y-38.1
X114.3Y-57.15
X119.062Y-114.3
X123.825Y-76.2
X128.588Y-95.25
X128.588Y-141.605
X133.35Y-38.1
X133.35Y-57.15
X138.112Y-114.3
X142.875Y-76.2
X147.637Y-95.25
X152.4Y-38.1
X152.4Y-57.15
X157.162Y-114.3
X161.925Y-76.2
X166.688Y-95.25
X171.45Y-57.15
X176.213Y-114.3
X178.594Y-133.35
X180.975Y-38.1
X180.975Y-76.2
X185.737Y-95.25
X190.5Y-57.15
X195.262Y-114.3
X200.025Y-38.1
X200.025Y-76.2
X204.787Y-95.25
X209.55Y-57.15
X214.312Y-114.3
X219.075Y-38.1
X219.075Y-76.2
X223.837Y-95.25
X228.6Y-57.15
X228.6Y-141.605
X233.362Y-114.3
X238.125Y-38.1
X238.125Y-76.2
X242.887Y-95.25
X247.65Y-57.15
X250.031Y-133.35
X252.412Y-114.3
X257.175Y-76.2
X261.938Y-95.25
X266.7Y-38.1
X266.7Y-57.15
X271.462Y-114.3
X273.844Y-133.35
X276.225Y-76.2
X280.988Y-95.25
X285.75Y-38.1
X285.75Y-57.15
X295.274Y-122.546
X295.275Y-76.2
X297.656Y-133.35
X300.037Y-95.25
X302.419Y-65.405
X304.8Y-38.1
X307.181Y-114.3
X314.325Y-57.15
X319.086Y-122.546
X321.469Y-85.725
X321.469Y-133.35
X323.85Y-38.1
X326.231Y-65.405
X329.724Y-73.819
X329.724Y-97.631
X347.662Y-38.1
X347.662Y-57.15
X347.662Y-76.2
X347.662Y-133.35
X366.712Y-38.1
X366.712Y-57.15
X366.712Y-76.2
X366.712Y-114.3
X366.712Y-133.35
X385.762Y-38.1
X385.762Y-57.15
X385.762Y-76.2
X385.762Y-133.35
X407.194Y-141.605
X409.575Y-57.15
X409.575Y-76.2
X409.575Y-95.25
X409.575Y-114.3
X419.1Y-133.35
X428.625Y-57.15
X428.625Y-76.2
X428.625Y-95.25
X428.625Y-114.3
X431.006Y-141.605
X447.675Y-57.15
X447.675Y-76.2
X447.675Y-95.25
X447.675Y-114.3
X447.675Y-133.35
X466.725Y-57.15
X466.725Y-85.725
X466.725Y-123.825
X474.98Y-73.819
X474.98Y-97.631
X474.98Y-111.919
X474.98Y-135.731
M30
