%TF.GenerationSoftware,KiCad,Pcbnew,9.0.7*%
%TF.CreationDate,2026-03-30T18:14:03+02:00*%
%TF.ProjectId,Wireless-keyboard,57697265-6c65-4737-932d-6b6579626f61,rev?*%
%TF.SameCoordinates,Original*%
%TF.FileFunction,Legend,Top*%
%TF.FilePolarity,Positive*%
%FSLAX46Y46*%
G04 Gerber Fmt 4.6, Leading zero omitted, Abs format (unit mm)*
G04 Created by KiCad (PCBNEW 9.0.7) date 2026-03-30 18:14:03*
%MOMM*%
%LPD*%
G01*
G04 APERTURE LIST*
%ADD10C,0.150000*%
%ADD11C,0.254000*%
G04 APERTURE END LIST*
D10*
X75438095Y-35704819D02*
X75438095Y-34704819D01*
X75438095Y-35181009D02*
X76009523Y-35181009D01*
X76009523Y-35704819D02*
X76009523Y-34704819D01*
X77009523Y-35704819D02*
X76438095Y-35704819D01*
X76723809Y-35704819D02*
X76723809Y-34704819D01*
X76723809Y-34704819D02*
X76628571Y-34847676D01*
X76628571Y-34847676D02*
X76533333Y-34942914D01*
X76533333Y-34942914D02*
X76438095Y-34990533D01*
X165925595Y-35704819D02*
X165925595Y-34704819D01*
X165925595Y-35181009D02*
X166497023Y-35181009D01*
X166497023Y-35704819D02*
X166497023Y-34704819D01*
X166925595Y-34800057D02*
X166973214Y-34752438D01*
X166973214Y-34752438D02*
X167068452Y-34704819D01*
X167068452Y-34704819D02*
X167306547Y-34704819D01*
X167306547Y-34704819D02*
X167401785Y-34752438D01*
X167401785Y-34752438D02*
X167449404Y-34800057D01*
X167449404Y-34800057D02*
X167497023Y-34895295D01*
X167497023Y-34895295D02*
X167497023Y-34990533D01*
X167497023Y-34990533D02*
X167449404Y-35133390D01*
X167449404Y-35133390D02*
X166877976Y-35704819D01*
X166877976Y-35704819D02*
X167497023Y-35704819D01*
X365950595Y-94933136D02*
X365950595Y-93933136D01*
X365950595Y-94409326D02*
X366522023Y-94409326D01*
X366522023Y-94933136D02*
X366522023Y-93933136D01*
X367474404Y-93933136D02*
X366998214Y-93933136D01*
X366998214Y-93933136D02*
X366950595Y-94409326D01*
X366950595Y-94409326D02*
X366998214Y-94361707D01*
X366998214Y-94361707D02*
X367093452Y-94314088D01*
X367093452Y-94314088D02*
X367331547Y-94314088D01*
X367331547Y-94314088D02*
X367426785Y-94361707D01*
X367426785Y-94361707D02*
X367474404Y-94409326D01*
X367474404Y-94409326D02*
X367522023Y-94504564D01*
X367522023Y-94504564D02*
X367522023Y-94742659D01*
X367522023Y-94742659D02*
X367474404Y-94837897D01*
X367474404Y-94837897D02*
X367426785Y-94885517D01*
X367426785Y-94885517D02*
X367331547Y-94933136D01*
X367331547Y-94933136D02*
X367093452Y-94933136D01*
X367093452Y-94933136D02*
X366998214Y-94885517D01*
X366998214Y-94885517D02*
X366950595Y-94837897D01*
X465963095Y-102379819D02*
X465963095Y-101379819D01*
X465963095Y-101856009D02*
X466534523Y-101856009D01*
X466534523Y-102379819D02*
X466534523Y-101379819D01*
X467439285Y-101379819D02*
X467248809Y-101379819D01*
X467248809Y-101379819D02*
X467153571Y-101427438D01*
X467153571Y-101427438D02*
X467105952Y-101475057D01*
X467105952Y-101475057D02*
X467010714Y-101617914D01*
X467010714Y-101617914D02*
X466963095Y-101808390D01*
X466963095Y-101808390D02*
X466963095Y-102189342D01*
X466963095Y-102189342D02*
X467010714Y-102284580D01*
X467010714Y-102284580D02*
X467058333Y-102332200D01*
X467058333Y-102332200D02*
X467153571Y-102379819D01*
X467153571Y-102379819D02*
X467344047Y-102379819D01*
X467344047Y-102379819D02*
X467439285Y-102332200D01*
X467439285Y-102332200D02*
X467486904Y-102284580D01*
X467486904Y-102284580D02*
X467534523Y-102189342D01*
X467534523Y-102189342D02*
X467534523Y-101951247D01*
X467534523Y-101951247D02*
X467486904Y-101856009D01*
X467486904Y-101856009D02*
X467439285Y-101808390D01*
X467439285Y-101808390D02*
X467344047Y-101760771D01*
X467344047Y-101760771D02*
X467153571Y-101760771D01*
X467153571Y-101760771D02*
X467058333Y-101808390D01*
X467058333Y-101808390D02*
X467010714Y-101856009D01*
X467010714Y-101856009D02*
X466963095Y-101951247D01*
X426894345Y-35911069D02*
X426894345Y-34911069D01*
X426894345Y-35387259D02*
X427465773Y-35387259D01*
X427465773Y-35911069D02*
X427465773Y-34911069D01*
X427989583Y-35911069D02*
X428180059Y-35911069D01*
X428180059Y-35911069D02*
X428275297Y-35863450D01*
X428275297Y-35863450D02*
X428322916Y-35815830D01*
X428322916Y-35815830D02*
X428418154Y-35672973D01*
X428418154Y-35672973D02*
X428465773Y-35482497D01*
X428465773Y-35482497D02*
X428465773Y-35101545D01*
X428465773Y-35101545D02*
X428418154Y-35006307D01*
X428418154Y-35006307D02*
X428370535Y-34958688D01*
X428370535Y-34958688D02*
X428275297Y-34911069D01*
X428275297Y-34911069D02*
X428084821Y-34911069D01*
X428084821Y-34911069D02*
X427989583Y-34958688D01*
X427989583Y-34958688D02*
X427941964Y-35006307D01*
X427941964Y-35006307D02*
X427894345Y-35101545D01*
X427894345Y-35101545D02*
X427894345Y-35339640D01*
X427894345Y-35339640D02*
X427941964Y-35434878D01*
X427941964Y-35434878D02*
X427989583Y-35482497D01*
X427989583Y-35482497D02*
X428084821Y-35530116D01*
X428084821Y-35530116D02*
X428275297Y-35530116D01*
X428275297Y-35530116D02*
X428370535Y-35482497D01*
X428370535Y-35482497D02*
X428418154Y-35434878D01*
X428418154Y-35434878D02*
X428465773Y-35339640D01*
X251650595Y-35704819D02*
X251650595Y-34704819D01*
X251650595Y-35181009D02*
X252222023Y-35181009D01*
X252222023Y-35704819D02*
X252222023Y-34704819D01*
X252602976Y-34704819D02*
X253222023Y-34704819D01*
X253222023Y-34704819D02*
X252888690Y-35085771D01*
X252888690Y-35085771D02*
X253031547Y-35085771D01*
X253031547Y-35085771D02*
X253126785Y-35133390D01*
X253126785Y-35133390D02*
X253174404Y-35181009D01*
X253174404Y-35181009D02*
X253222023Y-35276247D01*
X253222023Y-35276247D02*
X253222023Y-35514342D01*
X253222023Y-35514342D02*
X253174404Y-35609580D01*
X253174404Y-35609580D02*
X253126785Y-35657200D01*
X253126785Y-35657200D02*
X253031547Y-35704819D01*
X253031547Y-35704819D02*
X252745833Y-35704819D01*
X252745833Y-35704819D02*
X252650595Y-35657200D01*
X252650595Y-35657200D02*
X252602976Y-35609580D01*
X46950133Y-39448298D02*
X46997752Y-39305441D01*
X46997752Y-39305441D02*
X46997752Y-39067346D01*
X46997752Y-39067346D02*
X46950133Y-38972108D01*
X46950133Y-38972108D02*
X46902513Y-38924489D01*
X46902513Y-38924489D02*
X46807275Y-38876870D01*
X46807275Y-38876870D02*
X46712037Y-38876870D01*
X46712037Y-38876870D02*
X46616799Y-38924489D01*
X46616799Y-38924489D02*
X46569180Y-38972108D01*
X46569180Y-38972108D02*
X46521561Y-39067346D01*
X46521561Y-39067346D02*
X46473942Y-39257822D01*
X46473942Y-39257822D02*
X46426323Y-39353060D01*
X46426323Y-39353060D02*
X46378704Y-39400679D01*
X46378704Y-39400679D02*
X46283466Y-39448298D01*
X46283466Y-39448298D02*
X46188228Y-39448298D01*
X46188228Y-39448298D02*
X46092990Y-39400679D01*
X46092990Y-39400679D02*
X46045371Y-39353060D01*
X46045371Y-39353060D02*
X45997752Y-39257822D01*
X45997752Y-39257822D02*
X45997752Y-39019727D01*
X45997752Y-39019727D02*
X46045371Y-38876870D01*
X45997752Y-38543536D02*
X46997752Y-38305441D01*
X46997752Y-38305441D02*
X46283466Y-38114965D01*
X46283466Y-38114965D02*
X46997752Y-37924489D01*
X46997752Y-37924489D02*
X45997752Y-37686394D01*
X46997752Y-36781632D02*
X46997752Y-37353060D01*
X46997752Y-37067346D02*
X45997752Y-37067346D01*
X45997752Y-37067346D02*
X46140609Y-37162584D01*
X46140609Y-37162584D02*
X46235847Y-37257822D01*
X46235847Y-37257822D02*
X46283466Y-37353060D01*
X142113095Y-130954819D02*
X142113095Y-129954819D01*
X142113095Y-130431009D02*
X142684523Y-130431009D01*
X142684523Y-130954819D02*
X142684523Y-129954819D01*
X143065476Y-129954819D02*
X143732142Y-129954819D01*
X143732142Y-129954819D02*
X143303571Y-130954819D01*
X49244345Y-73804819D02*
X49244345Y-72804819D01*
X49244345Y-73281009D02*
X49815773Y-73281009D01*
X49815773Y-73804819D02*
X49815773Y-72804819D01*
X50720535Y-73138152D02*
X50720535Y-73804819D01*
X50482440Y-72757200D02*
X50244345Y-73471485D01*
X50244345Y-73471485D02*
X50863392Y-73471485D01*
X215931845Y-130954819D02*
X215931845Y-129954819D01*
X215931845Y-130431009D02*
X216503273Y-130431009D01*
X216503273Y-130954819D02*
X216503273Y-129954819D01*
X217122321Y-130383390D02*
X217027083Y-130335771D01*
X217027083Y-130335771D02*
X216979464Y-130288152D01*
X216979464Y-130288152D02*
X216931845Y-130192914D01*
X216931845Y-130192914D02*
X216931845Y-130145295D01*
X216931845Y-130145295D02*
X216979464Y-130050057D01*
X216979464Y-130050057D02*
X217027083Y-130002438D01*
X217027083Y-130002438D02*
X217122321Y-129954819D01*
X217122321Y-129954819D02*
X217312797Y-129954819D01*
X217312797Y-129954819D02*
X217408035Y-130002438D01*
X217408035Y-130002438D02*
X217455654Y-130050057D01*
X217455654Y-130050057D02*
X217503273Y-130145295D01*
X217503273Y-130145295D02*
X217503273Y-130192914D01*
X217503273Y-130192914D02*
X217455654Y-130288152D01*
X217455654Y-130288152D02*
X217408035Y-130335771D01*
X217408035Y-130335771D02*
X217312797Y-130383390D01*
X217312797Y-130383390D02*
X217122321Y-130383390D01*
X217122321Y-130383390D02*
X217027083Y-130431009D01*
X217027083Y-130431009D02*
X216979464Y-130478628D01*
X216979464Y-130478628D02*
X216931845Y-130573866D01*
X216931845Y-130573866D02*
X216931845Y-130764342D01*
X216931845Y-130764342D02*
X216979464Y-130859580D01*
X216979464Y-130859580D02*
X217027083Y-130907200D01*
X217027083Y-130907200D02*
X217122321Y-130954819D01*
X217122321Y-130954819D02*
X217312797Y-130954819D01*
X217312797Y-130954819D02*
X217408035Y-130907200D01*
X217408035Y-130907200D02*
X217455654Y-130859580D01*
X217455654Y-130859580D02*
X217503273Y-130764342D01*
X217503273Y-130764342D02*
X217503273Y-130573866D01*
X217503273Y-130573866D02*
X217455654Y-130478628D01*
X217455654Y-130478628D02*
X217408035Y-130431009D01*
X217408035Y-130431009D02*
X217312797Y-130383390D01*
D11*
%TO.C,SW1*%
X31612500Y-44000000D02*
X31612500Y-32200000D01*
X31612500Y-44000000D02*
X35440500Y-44000000D01*
X35441000Y-32200000D02*
X31612500Y-32200000D01*
X35441000Y-32200000D02*
X31612500Y-32200000D01*
X35580500Y-33312000D02*
X35580500Y-34290000D01*
X35580500Y-42888000D02*
X35580500Y-42075000D01*
X38628500Y-35306000D02*
X38628500Y-40894000D01*
X39644500Y-34048500D02*
X39644500Y-33312000D01*
X39644500Y-42888000D02*
X39644500Y-42075000D01*
X39784500Y-44000000D02*
X43612500Y-44000000D01*
X43612500Y-32200000D02*
X39784500Y-32200000D01*
X43612500Y-32200000D02*
X39784500Y-32200000D01*
X43612500Y-32200000D02*
X43612500Y-35034000D01*
X43612500Y-36085500D02*
X43612500Y-40114000D01*
X43612500Y-41165500D02*
X43612500Y-44000000D01*
X38628500Y-39878000D02*
G75*
G02*
X38628500Y-36322000I-994000J1778000D01*
G01*
X40660500Y-38100000D02*
G75*
G02*
X34564500Y-38100000I-3048000J0D01*
G01*
X34564500Y-38100000D02*
G75*
G02*
X40660500Y-38100000I3048000J0D01*
G01*
X40965000Y-38100000D02*
G75*
G02*
X34260000Y-38100000I-3352500J0D01*
G01*
X34260000Y-38100000D02*
G75*
G02*
X40965000Y-38100000I3352500J0D01*
G01*
X41937500Y-38100000D02*
G75*
G02*
X33287500Y-38100000I-4325000J0D01*
G01*
X33287500Y-38100000D02*
G75*
G02*
X41937500Y-38100000I4325000J0D01*
G01*
%TD*%
M02*
