%TF.GenerationSoftware,KiCad,Pcbnew,9.0.7*%
%TF.CreationDate,2026-03-30T18:14:03+02:00*%
%TF.ProjectId,Wireless-keyboard,57697265-6c65-4737-932d-6b6579626f61,rev?*%
%TF.SameCoordinates,Original*%
%TF.FileFunction,Paste,Bot*%
%TF.FilePolarity,Positive*%
%FSLAX46Y46*%
G04 Gerber Fmt 4.6, Leading zero omitted, Abs format (unit mm)*
G04 Created by KiCad (PCBNEW 9.0.7) date 2026-03-30 18:14:03*
%MOMM*%
%LPD*%
G01*
G04 APERTURE LIST*
G04 Aperture macros list*
%AMRoundRect*
0 Rectangle with rounded corners*
0 $1 Rounding radius*
0 $2 $3 $4 $5 $6 $7 $8 $9 X,Y pos of 4 corners*
0 Add a 4 corners polygon primitive as box body*
4,1,4,$2,$3,$4,$5,$6,$7,$8,$9,$2,$3,0*
0 Add four circle primitives for the rounded corners*
1,1,$1+$1,$2,$3*
1,1,$1+$1,$4,$5*
1,1,$1+$1,$6,$7*
1,1,$1+$1,$8,$9*
0 Add four rect primitives between the rounded corners*
20,1,$1+$1,$2,$3,$4,$5,0*
20,1,$1+$1,$4,$5,$6,$7,0*
20,1,$1+$1,$6,$7,$8,$9,0*
20,1,$1+$1,$8,$9,$2,$3,0*%
G04 Aperture macros list end*
%ADD10RoundRect,0.250000X-0.250000X-0.250000X0.250000X-0.250000X0.250000X0.250000X-0.250000X0.250000X0*%
%ADD11RoundRect,0.250000X-1.025000X-1.000000X1.025000X-1.000000X1.025000X1.000000X-1.025000X1.000000X0*%
G04 APERTURE END LIST*
D10*
%TO.C,D83*%
X131782500Y-111270000D03*
X134282500Y-111270000D03*
%TD*%
%TO.C,D62*%
X57963750Y-92220000D03*
X60463750Y-92220000D03*
%TD*%
%TO.C,D81*%
X93682500Y-111270000D03*
X96182500Y-111270000D03*
%TD*%
%TO.C,D23*%
X146070000Y-54120000D03*
X148570000Y-54120000D03*
%TD*%
%TO.C,D36*%
X422295000Y-54120000D03*
X424795000Y-54120000D03*
%TD*%
D11*
%TO.C,MX7*%
X207385000Y-40640000D03*
X193935000Y-43180000D03*
%TD*%
D10*
%TO.C,D50*%
X250845000Y-73170000D03*
X253345000Y-73170000D03*
%TD*%
%TO.C,D104*%
X291326250Y-130320000D03*
X293826250Y-130320000D03*
%TD*%
%TO.C,D67*%
X160357500Y-92220000D03*
X162857500Y-92220000D03*
%TD*%
%TO.C,D14*%
X341332500Y-35070000D03*
X343832500Y-35070000D03*
%TD*%
%TO.C,D96*%
X460395000Y-120795000D03*
X462895000Y-120795000D03*
%TD*%
D11*
%TO.C,MX101*%
X185953750Y-135890000D03*
X172503750Y-138430000D03*
%TD*%
%TO.C,MX4*%
X140710000Y-40640000D03*
X127260000Y-43180000D03*
%TD*%
D10*
%TO.C,D42*%
X98445000Y-73170000D03*
X100945000Y-73170000D03*
%TD*%
%TO.C,D17*%
X31770000Y-54120000D03*
X34270000Y-54120000D03*
%TD*%
%TO.C,D32*%
X341332500Y-54120000D03*
X343832500Y-54120000D03*
%TD*%
D11*
%TO.C,MX2*%
X102610000Y-40640000D03*
X89160000Y-43180000D03*
%TD*%
D10*
%TO.C,D37*%
X441345000Y-54120000D03*
X443845000Y-54120000D03*
%TD*%
D11*
%TO.C,MX31*%
X321685000Y-59690000D03*
X308235000Y-62230000D03*
%TD*%
D10*
%TO.C,D24*%
X165120000Y-54120000D03*
X167620000Y-54120000D03*
%TD*%
D11*
%TO.C,MX33*%
X374072500Y-59690000D03*
X360622500Y-62230000D03*
%TD*%
%TO.C,MX39*%
X45460000Y-78740000D03*
X32010000Y-81280000D03*
%TD*%
%TO.C,MX94*%
X435985000Y-116840000D03*
X422535000Y-119380000D03*
%TD*%
%TO.C,MX84*%
X164522500Y-116840000D03*
X151072500Y-119380000D03*
%TD*%
%TO.C,MX103*%
X281203750Y-135890000D03*
X267753750Y-138430000D03*
%TD*%
%TO.C,MX54*%
X355022500Y-78740000D03*
X341572500Y-81280000D03*
%TD*%
D10*
%TO.C,D86*%
X188932500Y-111270000D03*
X191432500Y-111270000D03*
%TD*%
%TO.C,D30*%
X279420000Y-54120000D03*
X281920000Y-54120000D03*
%TD*%
D11*
%TO.C,MX105*%
X328828750Y-135890000D03*
X315378750Y-138430000D03*
%TD*%
D10*
%TO.C,D31*%
X307995000Y-54120000D03*
X310495000Y-54120000D03*
%TD*%
D11*
%TO.C,MX73*%
X288347500Y-97790000D03*
X274897500Y-100330000D03*
%TD*%
D10*
%TO.C,D57*%
X403245000Y-73170000D03*
X405745000Y-73170000D03*
%TD*%
D11*
%TO.C,MX99*%
X90703750Y-135890000D03*
X77253750Y-138430000D03*
%TD*%
D10*
%TO.C,D90*%
X265132500Y-111270000D03*
X267632500Y-111270000D03*
%TD*%
D11*
%TO.C,MX50*%
X264535000Y-78740000D03*
X251085000Y-81280000D03*
%TD*%
%TO.C,MX44*%
X150235000Y-78740000D03*
X136785000Y-81280000D03*
%TD*%
%TO.C,MX95*%
X455035000Y-116840000D03*
X441585000Y-119380000D03*
%TD*%
%TO.C,MX62*%
X71653750Y-97790000D03*
X58203750Y-100330000D03*
%TD*%
%TO.C,MX1*%
X64510000Y-40640000D03*
X51060000Y-43180000D03*
%TD*%
%TO.C,MX53*%
X328828750Y-88265000D03*
X315378750Y-90805000D03*
%TD*%
D10*
%TO.C,D58*%
X422295000Y-73170000D03*
X424795000Y-73170000D03*
%TD*%
%TO.C,D25*%
X184170000Y-54120000D03*
X186670000Y-54120000D03*
%TD*%
%TO.C,D72*%
X255607500Y-92220000D03*
X258107500Y-92220000D03*
%TD*%
D11*
%TO.C,MX17*%
X45460000Y-59690000D03*
X32010000Y-62230000D03*
%TD*%
D10*
%TO.C,D64*%
X103207500Y-92220000D03*
X105707500Y-92220000D03*
%TD*%
D11*
%TO.C,MX69*%
X212147500Y-97790000D03*
X198697500Y-100330000D03*
%TD*%
D10*
%TO.C,D52*%
X288945000Y-73170000D03*
X291445000Y-73170000D03*
%TD*%
%TO.C,D4*%
X127020000Y-35070000D03*
X129520000Y-35070000D03*
%TD*%
D11*
%TO.C,MX5*%
X159760000Y-40640000D03*
X146310000Y-43180000D03*
%TD*%
%TO.C,MX49*%
X245485000Y-78740000D03*
X232035000Y-81280000D03*
%TD*%
%TO.C,MX29*%
X274060000Y-59690000D03*
X260610000Y-62230000D03*
%TD*%
%TO.C,MX61*%
X45460000Y-97790000D03*
X32010000Y-100330000D03*
%TD*%
%TO.C,MX107*%
X374072500Y-135890000D03*
X360622500Y-138430000D03*
%TD*%
%TO.C,MX75*%
X416935000Y-97790000D03*
X403485000Y-100330000D03*
%TD*%
D10*
%TO.C,D38*%
X460395000Y-54120000D03*
X462895000Y-54120000D03*
%TD*%
D11*
%TO.C,MX46*%
X188335000Y-78740000D03*
X174885000Y-81280000D03*
%TD*%
D10*
%TO.C,D79*%
X53201250Y-111270000D03*
X55701250Y-111270000D03*
%TD*%
D11*
%TO.C,MX27*%
X235960000Y-59690000D03*
X222510000Y-62230000D03*
%TD*%
%TO.C,MX71*%
X250247500Y-97790000D03*
X236797500Y-100330000D03*
%TD*%
%TO.C,MX38*%
X474085000Y-59690000D03*
X460635000Y-62230000D03*
%TD*%
D10*
%TO.C,D41*%
X79395000Y-73170000D03*
X81895000Y-73170000D03*
%TD*%
D11*
%TO.C,MX57*%
X416935000Y-78740000D03*
X403485000Y-81280000D03*
%TD*%
D10*
%TO.C,D92*%
X360382500Y-111270000D03*
X362882500Y-111270000D03*
%TD*%
%TO.C,D56*%
X379432500Y-73170000D03*
X381932500Y-73170000D03*
%TD*%
%TO.C,D77*%
X441345000Y-92220000D03*
X443845000Y-92220000D03*
%TD*%
%TO.C,D105*%
X315138750Y-130320000D03*
X317638750Y-130320000D03*
%TD*%
D11*
%TO.C,MX83*%
X145472500Y-116840000D03*
X132022500Y-119380000D03*
%TD*%
D10*
%TO.C,D27*%
X222270000Y-54120000D03*
X224770000Y-54120000D03*
%TD*%
D11*
%TO.C,MX20*%
X102610000Y-59690000D03*
X89160000Y-62230000D03*
%TD*%
D10*
%TO.C,D53*%
X315138750Y-82695000D03*
X317638750Y-82695000D03*
%TD*%
%TO.C,D63*%
X84157500Y-92220000D03*
X86657500Y-92220000D03*
%TD*%
%TO.C,D18*%
X50820000Y-54120000D03*
X53320000Y-54120000D03*
%TD*%
%TO.C,D85*%
X169882500Y-111270000D03*
X172382500Y-111270000D03*
%TD*%
%TO.C,D60*%
X460395000Y-82695000D03*
X462895000Y-82695000D03*
%TD*%
%TO.C,D51*%
X269895000Y-73170000D03*
X272395000Y-73170000D03*
%TD*%
D11*
%TO.C,MX48*%
X226435000Y-78740000D03*
X212985000Y-81280000D03*
%TD*%
D10*
%TO.C,D87*%
X207982500Y-111270000D03*
X210482500Y-111270000D03*
%TD*%
D11*
%TO.C,MX35*%
X416935000Y-59690000D03*
X403485000Y-62230000D03*
%TD*%
D10*
%TO.C,D102*%
X243701250Y-130320000D03*
X246201250Y-130320000D03*
%TD*%
%TO.C,D3*%
X107970000Y-35070000D03*
X110470000Y-35070000D03*
%TD*%
%TO.C,D19*%
X69870000Y-54120000D03*
X72370000Y-54120000D03*
%TD*%
%TO.C,D94*%
X422295000Y-111270000D03*
X424795000Y-111270000D03*
%TD*%
%TO.C,D78*%
X31770000Y-111270000D03*
X34270000Y-111270000D03*
%TD*%
D11*
%TO.C,MX3*%
X121660000Y-40640000D03*
X108210000Y-43180000D03*
%TD*%
%TO.C,MX76*%
X435985000Y-97790000D03*
X422535000Y-100330000D03*
%TD*%
%TO.C,MX24*%
X178810000Y-59690000D03*
X165360000Y-62230000D03*
%TD*%
%TO.C,MX12*%
X312160000Y-40640000D03*
X298710000Y-43180000D03*
%TD*%
D10*
%TO.C,D1*%
X50820000Y-35070000D03*
X53320000Y-35070000D03*
%TD*%
D11*
%TO.C,MX67*%
X174047500Y-97790000D03*
X160597500Y-100330000D03*
%TD*%
D10*
%TO.C,D70*%
X217507500Y-92220000D03*
X220007500Y-92220000D03*
%TD*%
%TO.C,D11*%
X279420000Y-35070000D03*
X281920000Y-35070000D03*
%TD*%
D11*
%TO.C,MX16*%
X393122500Y-40640000D03*
X379672500Y-43180000D03*
%TD*%
%TO.C,MX14*%
X355022500Y-40640000D03*
X341572500Y-43180000D03*
%TD*%
D10*
%TO.C,D2*%
X88920000Y-35070000D03*
X91420000Y-35070000D03*
%TD*%
D11*
%TO.C,MX108*%
X393122500Y-135890000D03*
X379672500Y-138430000D03*
%TD*%
D10*
%TO.C,D22*%
X127020000Y-54120000D03*
X129520000Y-54120000D03*
%TD*%
%TO.C,D26*%
X203220000Y-54120000D03*
X205720000Y-54120000D03*
%TD*%
D11*
%TO.C,MX55*%
X374072500Y-78740000D03*
X360622500Y-81280000D03*
%TD*%
%TO.C,MX88*%
X240722500Y-116840000D03*
X227272500Y-119380000D03*
%TD*%
%TO.C,MX51*%
X283585000Y-78740000D03*
X270135000Y-81280000D03*
%TD*%
%TO.C,MX30*%
X293110000Y-59690000D03*
X279660000Y-62230000D03*
%TD*%
%TO.C,MX77*%
X455035000Y-97790000D03*
X441585000Y-100330000D03*
%TD*%
%TO.C,MX79*%
X66891250Y-116840000D03*
X53441250Y-119380000D03*
%TD*%
D10*
%TO.C,D71*%
X236557500Y-92220000D03*
X239057500Y-92220000D03*
%TD*%
%TO.C,D8*%
X212745000Y-35070000D03*
X215245000Y-35070000D03*
%TD*%
%TO.C,D55*%
X360382500Y-73170000D03*
X362882500Y-73170000D03*
%TD*%
%TO.C,D9*%
X231795000Y-35070000D03*
X234295000Y-35070000D03*
%TD*%
D11*
%TO.C,MX68*%
X193097500Y-97790000D03*
X179647500Y-100330000D03*
%TD*%
%TO.C,MX32*%
X355022500Y-59690000D03*
X341572500Y-62230000D03*
%TD*%
%TO.C,MX58*%
X435985000Y-78740000D03*
X422535000Y-81280000D03*
%TD*%
%TO.C,MX40*%
X69272500Y-78740000D03*
X55822500Y-81280000D03*
%TD*%
D10*
%TO.C,D20*%
X88920000Y-54120000D03*
X91420000Y-54120000D03*
%TD*%
D11*
%TO.C,MX80*%
X88322500Y-116840000D03*
X74872500Y-119380000D03*
%TD*%
%TO.C,MX10*%
X274060000Y-40640000D03*
X260610000Y-43180000D03*
%TD*%
D10*
%TO.C,D106*%
X341332500Y-130320000D03*
X343832500Y-130320000D03*
%TD*%
D11*
%TO.C,MX81*%
X107372500Y-116840000D03*
X93922500Y-119380000D03*
%TD*%
D10*
%TO.C,D68*%
X179407500Y-92220000D03*
X181907500Y-92220000D03*
%TD*%
%TO.C,D88*%
X227032500Y-111270000D03*
X229532500Y-111270000D03*
%TD*%
D11*
%TO.C,MX37*%
X455035000Y-59690000D03*
X441585000Y-62230000D03*
%TD*%
D10*
%TO.C,D12*%
X298470000Y-35070000D03*
X300970000Y-35070000D03*
%TD*%
D11*
%TO.C,MX19*%
X83560000Y-59690000D03*
X70110000Y-62230000D03*
%TD*%
D10*
%TO.C,D43*%
X117495000Y-73170000D03*
X119995000Y-73170000D03*
%TD*%
D11*
%TO.C,MX42*%
X112135000Y-78740000D03*
X98685000Y-81280000D03*
%TD*%
%TO.C,MX90*%
X278822500Y-116840000D03*
X265372500Y-119380000D03*
%TD*%
D10*
%TO.C,D109*%
X412770000Y-130320000D03*
X415270000Y-130320000D03*
%TD*%
D11*
%TO.C,MX100*%
X114516250Y-135890000D03*
X101066250Y-138430000D03*
%TD*%
D10*
%TO.C,D5*%
X146070000Y-35070000D03*
X148570000Y-35070000D03*
%TD*%
D11*
%TO.C,MX74*%
X307397500Y-97790000D03*
X293947500Y-100330000D03*
%TD*%
%TO.C,MX23*%
X159760000Y-59690000D03*
X146310000Y-62230000D03*
%TD*%
%TO.C,MX106*%
X355022500Y-135890000D03*
X341572500Y-138430000D03*
%TD*%
D10*
%TO.C,D95*%
X441345000Y-111270000D03*
X443845000Y-111270000D03*
%TD*%
%TO.C,D66*%
X141307500Y-92220000D03*
X143807500Y-92220000D03*
%TD*%
%TO.C,D101*%
X172263750Y-130320000D03*
X174763750Y-130320000D03*
%TD*%
D11*
%TO.C,MX98*%
X66891250Y-135890000D03*
X53441250Y-138430000D03*
%TD*%
%TO.C,MX92*%
X374072500Y-116840000D03*
X360622500Y-119380000D03*
%TD*%
%TO.C,MX109*%
X426460000Y-135890000D03*
X413010000Y-138430000D03*
%TD*%
%TO.C,MX22*%
X140710000Y-59690000D03*
X127260000Y-62230000D03*
%TD*%
%TO.C,MX102*%
X257391250Y-135890000D03*
X243941250Y-138430000D03*
%TD*%
D10*
%TO.C,D89*%
X246082500Y-111270000D03*
X248582500Y-111270000D03*
%TD*%
D11*
%TO.C,MX82*%
X126422500Y-116840000D03*
X112972500Y-119380000D03*
%TD*%
D10*
%TO.C,D40*%
X55582500Y-73170000D03*
X58082500Y-73170000D03*
%TD*%
%TO.C,D46*%
X174645000Y-73170000D03*
X177145000Y-73170000D03*
%TD*%
%TO.C,D13*%
X317520000Y-35070000D03*
X320020000Y-35070000D03*
%TD*%
D11*
%TO.C,MX59*%
X455035000Y-78740000D03*
X441585000Y-81280000D03*
%TD*%
D10*
%TO.C,D75*%
X403245000Y-92220000D03*
X405745000Y-92220000D03*
%TD*%
D11*
%TO.C,MX6*%
X188335000Y-40640000D03*
X174885000Y-43180000D03*
%TD*%
D10*
%TO.C,D54*%
X341332500Y-73170000D03*
X343832500Y-73170000D03*
%TD*%
%TO.C,D97*%
X31770000Y-130320000D03*
X34270000Y-130320000D03*
%TD*%
%TO.C,D76*%
X422295000Y-92220000D03*
X424795000Y-92220000D03*
%TD*%
D11*
%TO.C,MX26*%
X216910000Y-59690000D03*
X203460000Y-62230000D03*
%TD*%
D10*
%TO.C,D69*%
X198457500Y-92220000D03*
X200957500Y-92220000D03*
%TD*%
%TO.C,D61*%
X31770000Y-92220000D03*
X34270000Y-92220000D03*
%TD*%
D11*
%TO.C,MX72*%
X269297500Y-97790000D03*
X255847500Y-100330000D03*
%TD*%
D10*
%TO.C,D107*%
X360382500Y-130320000D03*
X362882500Y-130320000D03*
%TD*%
D11*
%TO.C,MX13*%
X331210000Y-40640000D03*
X317760000Y-43180000D03*
%TD*%
D10*
%TO.C,D74*%
X293707500Y-92220000D03*
X296207500Y-92220000D03*
%TD*%
%TO.C,D108*%
X379432500Y-130320000D03*
X381932500Y-130320000D03*
%TD*%
D11*
%TO.C,MX96*%
X474085000Y-126365000D03*
X460635000Y-128905000D03*
%TD*%
%TO.C,MX78*%
X45460000Y-116840000D03*
X32010000Y-119380000D03*
%TD*%
%TO.C,MX86*%
X202622500Y-116840000D03*
X189172500Y-119380000D03*
%TD*%
D10*
%TO.C,D16*%
X379432500Y-35070000D03*
X381932500Y-35070000D03*
%TD*%
%TO.C,D49*%
X231795000Y-73170000D03*
X234295000Y-73170000D03*
%TD*%
D11*
%TO.C,MX64*%
X116897500Y-97790000D03*
X103447500Y-100330000D03*
%TD*%
%TO.C,MX66*%
X154997500Y-97790000D03*
X141547500Y-100330000D03*
%TD*%
D10*
%TO.C,D6*%
X174645000Y-35070000D03*
X177145000Y-35070000D03*
%TD*%
D11*
%TO.C,MX11*%
X293110000Y-40640000D03*
X279660000Y-43180000D03*
%TD*%
D10*
%TO.C,D103*%
X267513750Y-130320000D03*
X270013750Y-130320000D03*
%TD*%
D11*
%TO.C,MX52*%
X302635000Y-78740000D03*
X289185000Y-81280000D03*
%TD*%
D10*
%TO.C,D99*%
X77013750Y-130320000D03*
X79513750Y-130320000D03*
%TD*%
%TO.C,D73*%
X274657500Y-92220000D03*
X277157500Y-92220000D03*
%TD*%
D11*
%TO.C,MX18*%
X64510000Y-59690000D03*
X51060000Y-62230000D03*
%TD*%
D10*
%TO.C,D33*%
X360382500Y-54120000D03*
X362882500Y-54120000D03*
%TD*%
%TO.C,D84*%
X150832500Y-111270000D03*
X153332500Y-111270000D03*
%TD*%
%TO.C,D39*%
X31770000Y-73170000D03*
X34270000Y-73170000D03*
%TD*%
D11*
%TO.C,MX47*%
X207385000Y-78740000D03*
X193935000Y-81280000D03*
%TD*%
%TO.C,MX85*%
X183572500Y-116840000D03*
X170122500Y-119380000D03*
%TD*%
%TO.C,MX25*%
X197860000Y-59690000D03*
X184410000Y-62230000D03*
%TD*%
D10*
%TO.C,D34*%
X379432500Y-54120000D03*
X381932500Y-54120000D03*
%TD*%
D11*
%TO.C,MX89*%
X259772500Y-116840000D03*
X246322500Y-119380000D03*
%TD*%
D10*
%TO.C,D15*%
X360382500Y-35070000D03*
X362882500Y-35070000D03*
%TD*%
%TO.C,D98*%
X53201250Y-130320000D03*
X55701250Y-130320000D03*
%TD*%
%TO.C,D21*%
X107970000Y-54120000D03*
X110470000Y-54120000D03*
%TD*%
%TO.C,D29*%
X260370000Y-54120000D03*
X262870000Y-54120000D03*
%TD*%
D11*
%TO.C,MX21*%
X121660000Y-59690000D03*
X108210000Y-62230000D03*
%TD*%
D10*
%TO.C,D10*%
X260370000Y-35070000D03*
X262870000Y-35070000D03*
%TD*%
%TO.C,D100*%
X100826250Y-130320000D03*
X103326250Y-130320000D03*
%TD*%
D11*
%TO.C,MX91*%
X314541250Y-116840000D03*
X301091250Y-119380000D03*
%TD*%
D10*
%TO.C,D80*%
X74632500Y-111270000D03*
X77132500Y-111270000D03*
%TD*%
D11*
%TO.C,MX15*%
X374072500Y-40640000D03*
X360622500Y-43180000D03*
%TD*%
%TO.C,MX70*%
X231197500Y-97790000D03*
X217747500Y-100330000D03*
%TD*%
%TO.C,MX63*%
X97847500Y-97790000D03*
X84397500Y-100330000D03*
%TD*%
%TO.C,MX8*%
X226435000Y-40640000D03*
X212985000Y-43180000D03*
%TD*%
%TO.C,MX93*%
X416935000Y-116840000D03*
X403485000Y-119380000D03*
%TD*%
%TO.C,MX36*%
X435985000Y-59690000D03*
X422535000Y-62230000D03*
%TD*%
%TO.C,MX45*%
X169285000Y-78740000D03*
X155835000Y-81280000D03*
%TD*%
%TO.C,MX41*%
X93085000Y-78740000D03*
X79635000Y-81280000D03*
%TD*%
%TO.C,MX56*%
X393122500Y-78740000D03*
X379672500Y-81280000D03*
%TD*%
D10*
%TO.C,D110*%
X441345000Y-130320000D03*
X443845000Y-130320000D03*
%TD*%
%TO.C,D82*%
X112732500Y-111270000D03*
X115232500Y-111270000D03*
%TD*%
%TO.C,D35*%
X403245000Y-54120000D03*
X405745000Y-54120000D03*
%TD*%
D11*
%TO.C,MX110*%
X455035000Y-135890000D03*
X441585000Y-138430000D03*
%TD*%
D10*
%TO.C,D59*%
X441345000Y-73170000D03*
X443845000Y-73170000D03*
%TD*%
%TO.C,D65*%
X122257500Y-92220000D03*
X124757500Y-92220000D03*
%TD*%
%TO.C,D91*%
X300851250Y-111270000D03*
X303351250Y-111270000D03*
%TD*%
%TO.C,D48*%
X212745000Y-73170000D03*
X215245000Y-73170000D03*
%TD*%
%TO.C,D47*%
X193695000Y-73170000D03*
X196195000Y-73170000D03*
%TD*%
D11*
%TO.C,MX104*%
X305016250Y-135890000D03*
X291566250Y-138430000D03*
%TD*%
%TO.C,MX97*%
X45460000Y-135890000D03*
X32010000Y-138430000D03*
%TD*%
D10*
%TO.C,D45*%
X155595000Y-73170000D03*
X158095000Y-73170000D03*
%TD*%
D11*
%TO.C,MX28*%
X255010000Y-59690000D03*
X241560000Y-62230000D03*
%TD*%
%TO.C,MX65*%
X135947500Y-97790000D03*
X122497500Y-100330000D03*
%TD*%
D10*
%TO.C,D44*%
X136545000Y-73170000D03*
X139045000Y-73170000D03*
%TD*%
D11*
%TO.C,MX34*%
X393122500Y-59690000D03*
X379672500Y-62230000D03*
%TD*%
%TO.C,MX87*%
X221672500Y-116840000D03*
X208222500Y-119380000D03*
%TD*%
D10*
%TO.C,D93*%
X403245000Y-111270000D03*
X405745000Y-111270000D03*
%TD*%
%TO.C,D28*%
X241320000Y-54120000D03*
X243820000Y-54120000D03*
%TD*%
%TO.C,D7*%
X193695000Y-35070000D03*
X196195000Y-35070000D03*
%TD*%
D11*
%TO.C,MX60*%
X474085000Y-88265000D03*
X460635000Y-90805000D03*
%TD*%
%TO.C,MX43*%
X131185000Y-78740000D03*
X117735000Y-81280000D03*
%TD*%
%TO.C,MX9*%
X245485000Y-40640000D03*
X232035000Y-43180000D03*
%TD*%
M02*
