M48
; DRILL file {KiCad 9.0.7} date 2026-03-30T18:14:09+0200
; FORMAT={-:-/ absolute / metric / decimal}
; #@! TF.CreationDate,2026-03-30T18:14:09+02:00
; #@! TF.GenerationSoftware,Kicad,Pcbnew,9.0.7
; #@! TF.FileFunction,Plated,1,2,PTH
FMAT,2
METRIC
; #@! TA.AperFunction,Plated,PTH,ViaDrill
T1C0.300
; #@! TA.AperFunction,Plated,PTH,ComponentDrill
T2C1.000
; #@! TA.AperFunction,Plated,PTH,ComponentDrill
T3C1.300
; #@! TA.AperFunction,Plated,PTH,ComponentDrill
T4C1.500
; #@! TA.AperFunction,Plated,PTH,ComponentDrill
T5C2.200
; #@! TA.AperFunction,Plated,PTH,ComponentDrill
T6C3.000
%
G90
G05
T1
X99.156Y-31.006
X137.256Y-31.856
X185.156Y-32.356
X223.006Y-32.906
X270.506Y-33.556
X332.056Y-124.557
X435.656Y-54.12
X436.856Y-54.856
X476.206Y-80.956
X476.256Y-119.156
X476.256Y-131.106
X476.306Y-69.856
T2
X411.956Y-35.6
X411.956Y-38.1
X445.611Y-30.48
X445.611Y-45.72
X448.151Y-30.48
X448.151Y-45.72
X450.691Y-30.48
X450.691Y-38.1
X450.691Y-40.64
X450.691Y-43.18
X450.691Y-45.72
X453.231Y-30.48
X453.231Y-45.72
X455.771Y-30.48
X455.771Y-45.72
X458.311Y-30.48
X458.311Y-45.72
X460.851Y-30.48
X460.851Y-45.72
X463.391Y-30.48
X463.391Y-45.72
X465.931Y-30.48
X465.931Y-45.72
X468.471Y-30.48
X468.471Y-45.72
X471.011Y-30.48
X471.011Y-45.72
X473.551Y-30.48
X473.551Y-45.72
X476.091Y-30.48
X476.091Y-45.72
T3
X30.112Y-35.56
X30.112Y-38.1
X30.112Y-40.64
X44.612Y-35.56
X44.612Y-40.64
T5
X50.006Y-76.2
X76.2Y-38.1
X142.875Y-133.35
X166.688Y-38.1
X216.694Y-133.35
X252.412Y-38.1
X366.712Y-97.328
X427.656Y-38.306
X466.725Y-104.775
T6
X35.56Y-62.23
X35.56Y-81.28
X35.56Y-100.33
X35.56Y-119.38
X35.56Y-138.43
X41.91Y-59.69
X41.91Y-78.74
X41.91Y-97.79
X41.91Y-116.84
X41.91Y-135.89
X54.61Y-43.18
X54.61Y-62.23
X56.991Y-119.38
X56.991Y-138.43
X59.372Y-81.28
X60.96Y-40.64
X60.96Y-59.69
X61.754Y-100.33
X63.341Y-116.84
X63.341Y-135.89
X65.722Y-78.74
X68.104Y-97.79
X73.66Y-62.23
X78.422Y-119.38
X80.01Y-59.69
X80.804Y-138.43
X83.185Y-81.28
X84.772Y-116.84
X87.154Y-135.89
X87.947Y-100.33
X89.535Y-78.74
X92.71Y-43.18
X92.71Y-62.23
X94.297Y-97.79
X97.472Y-119.38
X99.06Y-40.64
X99.06Y-59.69
X102.235Y-81.28
X103.822Y-116.84
X104.616Y-138.43
X106.997Y-100.33
X108.585Y-78.74
X110.966Y-135.89
X111.76Y-43.18
X111.76Y-62.23
X113.347Y-97.79
X116.522Y-119.38
X118.11Y-40.64
X118.11Y-59.69
X121.285Y-81.28
X122.872Y-116.84
X126.047Y-100.33
X127.635Y-78.74
X130.81Y-43.18
X130.81Y-62.23
X132.398Y-97.79
X135.572Y-119.38
X137.16Y-40.64
X137.16Y-59.69
X140.335Y-81.28
X141.922Y-116.84
X145.097Y-100.33
X146.685Y-78.74
X149.86Y-43.18
X149.86Y-62.23
X151.447Y-97.79
X154.623Y-119.38
X156.21Y-40.64
X156.21Y-59.69
X159.385Y-81.28
X160.972Y-116.84
X164.147Y-100.33
X165.735Y-78.74
X168.91Y-62.23
X170.498Y-97.79
X173.672Y-119.38
X175.26Y-59.69
X176.054Y-138.43
X178.435Y-43.18
X178.435Y-81.28
X180.022Y-116.84
X182.404Y-135.89
X183.197Y-100.33
X184.785Y-40.64
X184.785Y-78.74
X187.96Y-62.23
X189.547Y-97.79
X192.722Y-119.38
X194.31Y-59.69
X197.485Y-43.18
X197.485Y-81.28
X199.072Y-116.84
X202.248Y-100.33
X203.835Y-40.64
X203.835Y-78.74
X207.01Y-62.23
X208.597Y-97.79
X211.772Y-119.38
X213.36Y-59.69
X216.535Y-43.18
X216.535Y-81.28
X218.123Y-116.84
X221.297Y-100.33
X222.885Y-40.64
X222.885Y-78.74
X226.06Y-62.23
X227.647Y-97.79
X230.822Y-119.38
X232.41Y-59.69
X235.585Y-43.18
X235.585Y-81.28
X237.172Y-116.84
X240.347Y-100.33
X241.935Y-40.64
X241.935Y-78.74
X245.11Y-62.23
X246.697Y-97.79
X247.491Y-138.43
X249.873Y-119.38
X251.46Y-59.69
X253.841Y-135.89
X254.635Y-81.28
X256.222Y-116.84
X259.397Y-100.33
X260.985Y-78.74
X264.16Y-43.18
X264.16Y-62.23
X265.748Y-97.79
X268.923Y-119.38
X270.51Y-40.64
X270.51Y-59.69
X271.304Y-138.43
X273.685Y-81.28
X275.272Y-116.84
X277.654Y-135.89
X278.447Y-100.33
X280.035Y-78.74
X283.21Y-43.18
X283.21Y-62.23
X284.798Y-97.79
X289.56Y-40.64
X289.56Y-59.69
X292.735Y-81.28
X295.116Y-138.43
X297.498Y-100.33
X299.085Y-78.74
X301.466Y-135.89
X302.26Y-43.18
X303.847Y-97.79
X304.641Y-119.38
X308.61Y-40.64
X310.991Y-116.84
X311.785Y-62.23
X318.135Y-59.69
X318.929Y-90.805
X318.929Y-138.43
X321.31Y-43.18
X325.279Y-88.265
X325.279Y-135.89
X327.66Y-40.64
X345.123Y-43.18
X345.123Y-62.23
X345.123Y-81.28
X345.123Y-138.43
X351.472Y-40.64
X351.472Y-59.69
X351.472Y-78.74
X351.472Y-135.89
X364.172Y-43.18
X364.172Y-62.23
X364.172Y-81.28
X364.172Y-119.38
X364.172Y-138.43
X370.522Y-40.64
X370.522Y-59.69
X370.522Y-78.74
X370.522Y-116.84
X370.522Y-135.89
X383.222Y-43.18
X383.222Y-62.23
X383.222Y-81.28
X383.222Y-138.43
X389.572Y-40.64
X389.572Y-59.69
X389.572Y-78.74
X389.572Y-135.89
X407.035Y-62.23
X407.035Y-81.28
X407.035Y-100.33
X407.035Y-119.38
X413.385Y-59.69
X413.385Y-78.74
X413.385Y-97.79
X413.385Y-116.84
X416.56Y-138.43
X422.91Y-135.89
X426.085Y-62.23
X426.085Y-81.28
X426.085Y-100.33
X426.085Y-119.38
X432.435Y-59.69
X432.435Y-78.74
X432.435Y-97.79
X432.435Y-116.84
X445.135Y-62.23
X445.135Y-81.28
X445.135Y-100.33
X445.135Y-119.38
X445.135Y-138.43
X451.485Y-59.69
X451.485Y-78.74
X451.485Y-97.79
X451.485Y-116.84
X451.485Y-135.89
X464.185Y-62.23
X464.185Y-90.805
X464.185Y-128.905
X470.535Y-59.69
X470.535Y-88.265
X470.535Y-126.365
T4
G00X36.862Y-32.6
M15
G01X38.362Y-32.6
M16
G05
G00X36.862Y-43.6
M15
G01X38.362Y-43.6
M16
G05
M30
